# Blender 3.6.1
# www.blender.org
mtllib chicken.mtl
o CHİCKEN
v -0.510726 0.772785 0.158223
v -0.636815 1.279251 0.158223
v 0.531531 0.607225 0.252801
v 0.618751 1.472490 0.324013
v -0.510726 0.772785 -0.000000
v -0.636815 1.279251 -0.000000
v 0.618751 0.634442 -0.000000
v 0.618751 1.472490 -0.000000
v -0.636815 1.026018 0.158223
v 0.618751 1.053466 0.324013
v 0.894281 1.180729 0.154601
v -0.636815 1.026018 -0.000000
v 0.268473 0.525137 0.254647
v 0.181253 1.566785 0.271905
v 0.181253 1.566785 -0.000000
v 0.181253 0.497920 -0.000000
v 0.181253 1.032352 0.439422
v -0.228750 1.422678 0.298489
v -0.247752 0.521666 -0.000000
v -0.228750 1.029178 0.298489
v -0.247752 0.521666 0.298489
v -0.228750 1.422678 -0.000000
v 0.773935 0.833964 0.220642
v 0.773935 1.672012 0.220642
v 0.117599 1.721108 0.182398
v 0.117599 1.721108 -0.000000
v 0.773935 0.833964 -0.000000
v 0.773935 1.672012 -0.000000
v -0.202005 1.719335 -0.000000
v 0.773935 1.252988 0.220642
v 0.894281 1.679953 0.154601
v -0.520098 1.717569 -0.000000
v -0.520098 1.717569 0.155877
v 0.894281 1.180729 -0.000000
v 0.894281 1.679953 -0.000000
v -0.202005 1.719335 0.259032
v 0.894281 1.430341 0.154601
v 0.894281 1.430341 -0.000000
v -0.204095 2.125335 -0.000000
v -0.204095 2.125335 0.217096
v -0.419127 2.124142 -0.000000
v 0.011959 2.126534 0.123742
v 0.011959 2.126534 -0.000000
v -0.419127 2.124142 0.147362
v -0.204095 2.125335 -0.000000
v -0.204095 2.125335 0.217096
v 0.011959 2.126534 0.123742
v 0.011959 2.126534 -0.000000
v -0.204510 2.220285 -0.000000
v -0.204510 2.220285 0.157858
v -0.325350 2.219615 -0.000000
v -0.325350 2.219615 0.118670
v -0.204510 2.220285 -0.000000
v -0.204510 2.220285 0.157858
v -0.083095 2.220959 0.105397
v -0.083095 2.220959 -0.000000
v 0.894281 1.679953 -0.000000
v 0.894281 1.679953 0.154601
v 0.894281 1.430341 0.154601
v 0.894281 1.180729 0.154601
v 0.894281 1.180729 -0.000000
v 0.894281 1.430341 -0.000000
v 0.894281 1.679953 -0.000000
v 0.894281 1.679953 0.154601
v 0.894281 1.430341 0.154601
v 0.894281 1.180729 -0.000000
v 0.894281 1.430341 -0.000000
v 0.894281 1.430341 0.154601
v 0.894281 1.180729 0.154601
v 0.894281 1.430341 -0.000000
v 0.894281 1.679953 -0.000000
v 0.894281 1.679953 0.154601
v 0.894281 1.430341 0.154601
v 0.894281 1.180729 -0.000000
v 0.894281 1.430341 -0.000000
v 0.894281 1.430341 0.154601
v 0.894281 1.180729 0.154601
v 1.047869 1.465530 0.076832
v 1.047869 1.465530 0.076832
v 1.032501 1.629044 -0.000000
v 1.032501 1.629044 -0.000000
v 1.032501 1.629044 0.077301
v 1.047869 1.465530 -0.000000
v 1.032501 1.629044 0.077301
v 1.047869 1.465530 -0.000000
v 0.894281 1.679953 -0.000000
v 0.894281 1.430341 -0.000000
v 0.894281 1.679953 0.154601
v 0.894281 1.430341 0.154601
v 0.894281 1.430341 -0.000000
v 0.894281 1.180729 -0.000000
v 0.894281 1.430341 0.154601
v 0.894281 1.180729 0.154601
v 0.181253 0.497920 0.439422
v 0.618751 0.634442 0.324013
v 0.268473 0.525137 0.091368
v 0.531531 0.607225 0.091368
v 0.531938 0.538782 0.083851
v 0.258820 0.505460 0.099154
v 0.268118 0.504116 0.262163
v 0.541130 0.537454 0.245017
v 0.463686 0.421212 0.098402
v 0.333109 0.420733 0.105664
v 0.337416 0.419582 0.183025
v 0.467944 0.420074 0.174888
v 0.212333 0.089237 0.098718
v 0.101692 0.088831 0.098589
v 0.105342 0.087856 0.164138
v 0.215941 0.088273 0.165396
v 0.212582 -0.005895 0.099258
v 0.102398 0.002299 0.107693
v 0.105089 0.002185 0.156032
v 0.216190 -0.006047 0.164073
v 0.216023 0.057282 0.164961
v 0.212415 0.057980 0.098895
v 0.102276 0.048858 0.107426
v 0.104967 0.048338 0.155761
v 0.212582 -0.005895 0.099258
v 0.101942 -0.006303 0.099134
v 0.105591 -0.006456 0.164690
v 0.216190 -0.006047 0.164073
v 0.216023 0.057282 0.164961
v 0.212415 0.057980 0.098895
v 0.101774 0.057573 0.098768
v 0.105424 0.056867 0.164320
v 0.213279 0.006087 0.087749
v 0.101987 -0.006525 0.060130
v 0.105587 -0.006616 0.203695
v 0.215470 0.006032 0.175683
v 0.215367 0.045023 0.176230
v 0.213176 0.045414 0.087526
v 0.101819 0.057351 0.059764
v 0.105420 0.056708 0.203324
v 0.305643 -0.006056 0.141324
v 0.304027 -0.005988 0.112300
v 0.305568 0.022302 0.141722
v 0.303952 0.022615 0.112138
v 0.101942 -0.006303 0.099134
v 0.105591 -0.006456 0.164690
v 0.101774 0.057573 0.098768
v 0.105424 0.056867 0.164320
v -0.002642 -0.006941 0.089629
v -0.002717 0.021505 0.089466
v -0.004173 -0.007859 0.176039
v -0.004254 0.022897 0.175859
v -0.002622 -0.007040 0.072259
v -0.002696 0.021406 0.072096
v -0.004174 -0.007936 0.194983
v -0.004256 0.022820 0.194803
v -0.004195 -0.006900 0.119231
v -0.002638 -0.006965 0.147208
v -0.004266 0.020047 0.119077
v -0.002709 0.019746 0.147052
v -0.419127 2.124142 0.032208
v 0.011959 2.126534 0.027046
v -0.204510 2.220285 0.034502
v -0.325350 2.219615 0.025937
v -0.204510 2.220285 0.034502
v -0.083095 2.220959 0.023036
v -0.455769 2.223762 -0.000000
v -0.425611 2.254465 -0.000000
v -0.425611 2.254465 0.016843
v -0.455769 2.223762 0.018860
v -0.405679 2.259257 -0.000000
v -0.405679 2.259257 0.021165
v -0.460203 2.203747 -0.000000
v -0.460203 2.203747 0.024811
v -0.349728 2.243410 -0.000000
v -0.180398 2.244350 -0.000000
v -0.349728 2.243410 0.030282
v -0.180398 2.244350 0.042284
v -0.357591 2.294792 -0.000000
v -0.173105 2.295816 -0.000000
v -0.357591 2.294792 0.031369
v -0.173105 2.295816 0.044445
v -0.348711 2.330990 -0.000000
v -0.182386 2.331913 -0.000000
v -0.348711 2.330990 0.030146
v -0.182386 2.331913 0.041935
v -0.321661 2.360602 -0.000000
v -0.209763 2.361223 -0.000000
v -0.321661 2.360602 0.026178
v -0.209763 2.361223 0.034110
v -0.153393 2.265758 -0.000000
v -0.038754 2.225761 -0.000000
v -0.153393 2.265758 0.034502
v -0.038754 2.225761 0.023036
v -0.137881 2.286283 -0.000000
v -0.007618 2.240835 -0.000000
v -0.137881 2.286283 0.037244
v -0.007618 2.240835 0.024215
v -0.099171 2.311819 -0.000000
v -0.022041 2.284909 -0.000000
v -0.099171 2.311819 0.028320
v -0.022041 2.284909 0.020605
v 0.012479 2.141448 -0.000000
v -0.033404 2.212203 -0.000000
v 0.012479 2.141448 0.021663
v -0.033404 2.212203 0.019139
v 0.024352 2.144249 -0.000000
v 0.002599 2.211857 -0.000000
v 0.024352 2.144249 0.019854
v 0.002599 2.211857 0.017728
v 0.069645 2.163855 -0.000000
v 0.062878 2.184886 -0.000000
v 0.069645 2.163855 0.012649
v 0.062878 2.184886 0.011988
v -0.473549 1.905006 -0.000000
v -0.473549 1.905006 0.062551
v -0.450160 1.999184 -0.000000
v -0.450160 1.999184 0.061143
v -0.461854 1.952095 -0.000000
v -0.498980 1.996796 -0.000000
v -0.498980 1.996796 0.058658
v -0.500023 1.908190 -0.000000
v -0.500023 1.908190 0.059943
v -0.574147 1.973773 -0.000000
v -0.574147 1.973773 0.038914
v -0.574359 1.955703 -0.000000
v -0.574572 1.937634 -0.000000
v -0.574572 1.937634 0.039439
v -0.290219 2.092425 -0.194344
v -0.290219 1.995223 -0.225927
v -0.290219 1.951753 -0.194344
v -0.245963 2.092425 -0.168793
v -0.218611 2.048955 -0.184584
v -0.218611 1.995223 -0.184584
v -0.245963 1.951753 -0.168793
v -0.245963 2.092425 -0.000000
v -0.218611 2.048955 -0.000000
v -0.218611 1.995223 -0.000000
v -0.245963 1.951753 -0.000000
v -0.290219 2.092425 -0.000000
v -0.290219 2.048955 -0.000000
v -0.290219 1.995223 -0.000000
v -0.290219 1.951753 -0.000000
v -0.290219 1.935149 -0.000000
v -0.290219 2.109030 -0.000000
v -0.334474 2.092425 -0.000000
v -0.361826 2.048955 -0.000000
v -0.361826 1.995223 -0.000000
v -0.334474 1.951753 -0.000000
v -0.334474 2.092425 -0.168793
v -0.361826 2.048955 -0.184584
v -0.361826 1.995223 -0.184584
v -0.334474 1.951753 -0.168793
v -0.290219 2.048955 -0.225927
v -0.510726 0.772785 -0.158223
v -0.636815 1.279251 -0.158223
v 0.531531 0.607225 -0.252801
v 0.618751 1.472490 -0.324013
v -0.636815 1.026018 -0.158223
v 0.618751 1.053466 -0.324013
v 0.894281 1.180729 -0.154601
v 0.268473 0.525137 -0.254647
v 0.181253 1.566785 -0.271905
v 0.181253 1.032352 -0.439422
v -0.228750 1.422678 -0.298489
v -0.228750 1.029178 -0.298489
v -0.247752 0.521666 -0.298489
v 0.773935 0.833964 -0.220642
v 0.773935 1.672012 -0.220642
v 0.117599 1.721108 -0.182398
v 0.773935 1.252988 -0.220642
v 0.894281 1.679953 -0.154601
v -0.520098 1.717569 -0.155877
v -0.202005 1.719335 -0.259032
v 0.894281 1.430341 -0.154601
v -0.204095 2.125335 -0.217096
v 0.011959 2.126534 -0.123742
v -0.419127 2.124142 -0.147362
v -0.204095 2.125335 -0.217096
v 0.011959 2.126534 -0.123742
v -0.204510 2.220285 -0.157858
v -0.325350 2.219615 -0.118670
v -0.204510 2.220285 -0.157858
v -0.083095 2.220959 -0.105397
v 0.894281 1.679953 -0.154601
v 0.894281 1.430341 -0.154601
v 0.894281 1.180729 -0.154601
v 0.894281 1.679953 -0.154601
v 0.894281 1.430341 -0.154601
v 0.894281 1.430341 -0.154601
v 0.894281 1.180729 -0.154601
v 0.894281 1.679953 -0.154601
v 0.894281 1.430341 -0.154601
v 0.894281 1.430341 -0.154601
v 0.894281 1.180729 -0.154601
v 1.047869 1.465530 -0.076832
v 1.047869 1.465530 -0.076832
v 1.032501 1.629044 -0.077301
v 1.032501 1.629044 -0.077301
v 0.894281 1.679953 -0.154601
v 0.894281 1.430341 -0.154601
v 0.894281 1.430341 -0.154601
v 0.894281 1.180729 -0.154601
v 0.181253 0.497920 -0.439422
v 0.618751 0.634442 -0.324013
v 0.268473 0.525137 -0.091368
v 0.531531 0.607225 -0.091368
v 0.531938 0.538782 -0.083851
v 0.258820 0.505460 -0.099154
v 0.268118 0.504116 -0.262163
v 0.541130 0.537454 -0.245017
v 0.463686 0.421212 -0.098402
v 0.333109 0.420733 -0.105664
v 0.337416 0.419582 -0.183025
v 0.467944 0.420074 -0.174888
v 0.212333 0.089237 -0.098718
v 0.101692 0.088831 -0.098589
v 0.105342 0.087856 -0.164138
v 0.215941 0.088273 -0.165396
v 0.212582 -0.005895 -0.099258
v 0.102398 0.002299 -0.107693
v 0.105089 0.002185 -0.156032
v 0.216190 -0.006047 -0.164073
v 0.216023 0.057282 -0.164961
v 0.212415 0.057980 -0.098895
v 0.102276 0.048858 -0.107426
v 0.104967 0.048338 -0.155761
v 0.212582 -0.005895 -0.099258
v 0.101942 -0.006303 -0.099134
v 0.105591 -0.006456 -0.164690
v 0.216190 -0.006047 -0.164073
v 0.216023 0.057282 -0.164961
v 0.212415 0.057980 -0.098895
v 0.101774 0.057573 -0.098768
v 0.105424 0.056867 -0.164320
v 0.213279 0.006087 -0.087749
v 0.101987 -0.006525 -0.060130
v 0.105587 -0.006616 -0.203695
v 0.215470 0.006032 -0.175683
v 0.215367 0.045023 -0.176230
v 0.213176 0.045414 -0.087526
v 0.101819 0.057351 -0.059764
v 0.105420 0.056708 -0.203324
v 0.305643 -0.006056 -0.141324
v 0.304027 -0.005988 -0.112300
v 0.305568 0.022302 -0.141722
v 0.303952 0.022615 -0.112138
v 0.101942 -0.006303 -0.099134
v 0.105591 -0.006456 -0.164690
v 0.101774 0.057573 -0.098768
v 0.105424 0.056867 -0.164320
v -0.002642 -0.006941 -0.089629
v -0.002717 0.021505 -0.089466
v -0.004173 -0.007859 -0.176039
v -0.004254 0.022897 -0.175859
v -0.002622 -0.007040 -0.072259
v -0.002696 0.021406 -0.072096
v -0.004174 -0.007936 -0.194984
v -0.004256 0.022820 -0.194803
v -0.004195 -0.006900 -0.119231
v -0.002638 -0.006965 -0.147208
v -0.004266 0.020047 -0.119077
v -0.002709 0.019746 -0.147052
v -0.419127 2.124142 -0.032208
v 0.011959 2.126534 -0.027046
v -0.204510 2.220285 -0.034502
v -0.325350 2.219615 -0.025937
v -0.204510 2.220285 -0.034502
v -0.083095 2.220959 -0.023036
v -0.425611 2.254465 -0.016843
v -0.455769 2.223762 -0.018860
v -0.405679 2.259257 -0.021165
v -0.460203 2.203747 -0.024811
v -0.349728 2.243410 -0.030282
v -0.180398 2.244350 -0.042284
v -0.357591 2.294792 -0.031369
v -0.173105 2.295816 -0.044445
v -0.348711 2.330990 -0.030147
v -0.182386 2.331913 -0.041936
v -0.321661 2.360602 -0.026179
v -0.209763 2.361223 -0.034110
v -0.153393 2.265758 -0.034502
v -0.038754 2.225761 -0.023036
v -0.137881 2.286283 -0.037244
v -0.007618 2.240835 -0.024215
v -0.099171 2.311819 -0.028320
v -0.022041 2.284909 -0.020605
v 0.012479 2.141448 -0.021663
v -0.033404 2.212203 -0.019139
v 0.024352 2.144249 -0.019854
v 0.002599 2.211857 -0.017729
v 0.069645 2.163855 -0.012649
v 0.062878 2.184886 -0.011988
v -0.473549 1.905006 -0.062551
v -0.450160 1.999184 -0.061143
v -0.498980 1.996796 -0.058658
v -0.500023 1.908190 -0.059943
v -0.574147 1.973773 -0.038914
v -0.574572 1.937634 -0.039439
v -0.290219 2.092425 0.194344
v -0.290219 1.995223 0.225927
v -0.290219 1.951753 0.194344
v -0.245963 2.092425 0.168793
v -0.218611 2.048955 0.184584
v -0.218611 1.995223 0.184584
v -0.245963 1.951753 0.168793
v -0.334474 2.092425 0.168793
v -0.361826 2.048955 0.184584
v -0.361826 1.995223 0.184584
v -0.334474 1.951753 0.168793
v -0.290219 2.048955 0.225927
vn -0.3251 -0.0000 0.9457
vn 0.0353 0.0006 0.9994
vn -0.3369 0.1189 0.9340
vn -0.2337 0.9723 -0.0000
vn -0.7894 0.6139 -0.0000
vn -1.0000 -0.0000 -0.0000
vn 0.5544 -0.0000 0.8323
vn -0.4029 -0.0567 0.9135
vn -0.8952 -0.4457 -0.0000
vn 0.2551 -0.0000 0.9669
vn 0.7894 -0.6139 -0.0000
vn 0.2107 0.9776 -0.0000
vn 0.0854 0.1724 0.9813
vn -0.0553 -0.9985 -0.0000
vn -0.3183 0.0058 0.9480
vn -0.6906 -0.7232 -0.0000
vn -0.1668 0.1752 0.9703
vn 0.4811 -0.0000 0.8767
vn -0.0000 -0.0000 -1.0000
vn -0.0000 1.0000 -0.0000
vn 0.0793 0.2801 0.9567
vn -0.9663 0.2573 -0.0000
vn 0.9244 0.3813 -0.0000
vn 0.9447 -0.3279 -0.0000
vn -0.0658 0.9978 -0.0000
vn 0.2980 0.1563 0.9417
vn -0.9705 0.2410 -0.0000
vn -0.7134 0.7007 -0.0000
vn -0.3075 0.0962 0.9467
vn 0.9677 0.2521 -0.0000
vn 1.0000 0.0044 -0.0000
vn -0.0055 1.0000 -0.0000
vn 1.0000 -0.0000 -0.0000
vn -0.2681 0.5091 0.8179
vn 0.3415 0.4986 0.7967
vn -1.0000 -0.0044 -0.0000
vn 0.4517 -0.0000 0.8922
vn 0.4881 -0.0000 0.8728
vn 0.8209 -0.5710 -0.0000
vn 0.3456 0.9384 -0.0000
vn 0.8802 -0.4747 -0.0000
vn 0.2979 -0.9546 -0.0000
vn -0.2233 0.9747 -0.0000
vn -0.7544 -0.6554 0.0359
vn -0.0285 -0.0001 -0.9996
vn -0.9681 0.2488 0.0286
vn 0.0287 -0.0636 0.9976
vn 0.0998 -0.5927 0.7992
vn 0.9968 0.0753 -0.0281
vn -0.0468 -0.1048 -0.9934
vn 0.2464 -0.0129 0.9691
vn 0.8611 -0.5056 -0.0540
vn -0.0297 0.0317 -0.9991
vn 0.7961 -0.6029 -0.0526
vn -0.8196 0.5703 0.0541
vn 0.0037 -1.0000 -0.0026
vn -0.0086 -0.0041 1.0000
vn 0.0852 -0.9963 -0.0071
vn 0.0012 -0.0057 -1.0000
vn -0.9985 -0.0023 0.0556
vn 0.9980 0.0030 0.0635
vn 0.9985 0.0029 -0.0542
vn 0.2414 -0.0049 -0.9704
vn 0.2432 -0.0010 0.9700
vn 0.0872 -0.9694 0.2295
vn 0.0782 0.9676 0.2400
vn -0.1028 -0.0061 -0.9947
vn 0.9982 0.0018 0.0600
vn 0.0850 -0.9707 -0.2247
vn 0.0809 0.9664 -0.2440
vn -0.2584 0.9657 0.0248
vn 0.9985 0.0029 -0.0550
vn 0.3616 0.9323 -0.0099
vn 0.1412 -0.0052 -0.9900
vn -0.0007 -1.0000 -0.0023
vn -1.0000 -0.0026 -0.0001
vn -1.0000 -0.0026 -0.0011
vn -0.3258 0.9454 -0.0058
vn -0.1151 -0.0060 -0.9933
vn -0.1071 -0.0060 -0.9942
vn 0.0124 -0.9999 -0.0041
vn 0.0056 -1.0000 0.0057
vn -0.0792 0.0056 0.9968
vn -0.0905 0.0055 0.9959
vn -0.0821 0.0056 0.9966
vn -0.2955 0.9553 0.0039
vn 0.7048 0.7095 -0.0000
vn 0.1077 -0.9942 -0.0000
vn 0.4425 0.8967 -0.0000
vn -0.2751 0.3295 0.9032
vn -0.9763 0.2163 -0.0000
vn -0.0181 0.0832 0.9964
vn -0.8887 -0.4585 -0.0000
vn 0.9901 -0.1403 -0.0000
vn -0.0672 -0.2454 0.9671
vn -0.6985 -0.7156 -0.0000
vn 0.7064 -0.7078 -0.0000
vn -0.0709 0.0510 0.9962
vn -0.0705 -0.0319 0.9970
vn -0.9885 -0.1513 -0.0000
vn -0.7383 0.6744 -0.0000
vn -0.9712 0.2383 -0.0000
vn 0.9685 0.2490 -0.0000
vn -0.0056 1.0000 -0.0000
vn 0.7308 0.6826 -0.0000
vn -0.0704 0.1954 0.9782
vn 0.0417 -0.1632 0.9857
vn -0.6647 0.7471 -0.0000
vn 0.0729 -0.1384 0.9877
vn 0.9504 0.3110 -0.0000
vn -0.7978 0.6029 -0.0000
vn 0.4358 -0.9001 -0.0000
vn 0.3294 0.9442 -0.0000
vn 0.1425 0.1270 0.9816
vn -0.5506 0.8347 -0.0000
vn 0.0637 0.0646 0.9959
vn 0.1735 0.9848 -0.0000
vn 0.9994 -0.0349 -0.0000
vn 0.1584 0.1736 0.9720
vn 0.4084 0.9128 -0.0000
vn 0.2297 -0.9733 -0.0000
vn 0.0096 1.0000 -0.0000
vn 0.9519 0.3063 -0.0000
vn 0.1263 0.0718 0.9894
vn 0.3972 -0.9177 -0.0000
vn 0.9705 -0.2410 -0.0000
vn -0.0672 0.0237 0.9975
vn -0.2929 0.9562 -0.0000
vn -0.2589 0.0171 0.9658
vn -0.1194 -0.9928 -0.0000
vn -0.9999 0.0118 -0.0000
vn -0.3673 -0.9301 -0.0000
vn -0.0489 0.9988 -0.0000
vn 0.0491 -0.9952 -0.0850
vn 0.5000 -0.0000 -0.8660
vn 0.0491 0.9952 -0.0850
vn 0.4232 -0.5326 -0.7330
vn 0.4232 0.5326 -0.7330
vn 0.8464 -0.5326 -0.0000
vn 0.8464 0.5326 -0.0000
vn 0.3513 -0.9363 -0.0000
vn 0.3513 0.9363 -0.0000
vn -0.0000 -0.0000 1.0000
vn -0.8464 -0.5326 -0.0000
vn -0.8464 0.5326 -0.0000
vn -0.3513 -0.9363 -0.0000
vn -0.3513 0.9363 -0.0000
vn -0.4232 -0.5326 -0.7330
vn -0.4232 0.5326 -0.7330
vn -0.0491 -0.9952 -0.0850
vn -0.5000 -0.0000 -0.8660
vn -0.0491 0.9952 -0.0850
vn -0.3251 -0.0000 -0.9457
vn 0.0353 0.0006 -0.9994
vn -0.3369 0.1189 -0.9340
vn 0.5544 -0.0000 -0.8323
vn -0.4029 -0.0567 -0.9135
vn 0.2551 -0.0000 -0.9669
vn 0.0854 0.1724 -0.9813
vn -0.3183 0.0058 -0.9480
vn -0.1668 0.1752 -0.9703
vn 0.4811 -0.0000 -0.8767
vn 0.0793 0.2801 -0.9567
vn 0.2980 0.1563 -0.9417
vn -0.3075 0.0962 -0.9467
vn -0.2681 0.5091 -0.8179
vn 0.3415 0.4986 -0.7967
vn 0.4517 -0.0000 -0.8922
vn 0.4881 -0.0000 -0.8728
vn -0.7544 -0.6554 -0.0359
vn -0.0285 -0.0001 0.9996
vn -0.9681 0.2488 -0.0286
vn 0.0287 -0.0636 -0.9976
vn 0.0998 -0.5927 -0.7992
vn 0.9968 0.0753 0.0281
vn -0.0468 -0.1048 0.9934
vn 0.2464 -0.0129 -0.9691
vn 0.8611 -0.5056 0.0540
vn -0.0297 0.0317 0.9991
vn 0.7961 -0.6029 0.0526
vn -0.8196 0.5703 -0.0541
vn 0.0037 -1.0000 0.0026
vn -0.0086 -0.0041 -1.0000
vn 0.0852 -0.9963 0.0071
vn 0.0012 -0.0057 1.0000
vn -0.9985 -0.0023 -0.0556
vn 0.9980 0.0030 -0.0635
vn 0.9985 0.0029 0.0542
vn 0.2414 -0.0049 0.9704
vn 0.2432 -0.0010 -0.9700
vn 0.0872 -0.9694 -0.2295
vn 0.0782 0.9676 -0.2400
vn -0.1028 -0.0061 0.9947
vn 0.9982 0.0018 -0.0600
vn 0.0850 -0.9707 0.2247
vn 0.0809 0.9664 0.2440
vn -0.2584 0.9657 -0.0248
vn 0.9985 0.0029 0.0550
vn 0.3616 0.9323 0.0099
vn 0.1412 -0.0052 0.9900
vn -0.0007 -1.0000 0.0023
vn -1.0000 -0.0026 0.0001
vn -1.0000 -0.0026 0.0011
vn -0.3258 0.9454 0.0058
vn -0.1151 -0.0060 0.9933
vn -0.1071 -0.0060 0.9942
vn 0.0124 -0.9999 0.0041
vn 0.0056 -1.0000 -0.0057
vn -0.0792 0.0056 -0.9968
vn -0.0905 0.0055 -0.9959
vn -0.0821 0.0056 -0.9966
vn -0.2955 0.9553 -0.0039
vn -0.2751 0.3295 -0.9032
vn -0.0181 0.0832 -0.9964
vn -0.0672 -0.2454 -0.9671
vn -0.0709 0.0510 -0.9962
vn -0.0705 -0.0319 -0.9970
vn -0.0704 0.1954 -0.9782
vn 0.0417 -0.1632 -0.9857
vn 0.0729 -0.1384 -0.9877
vn 0.1425 0.1270 -0.9816
vn 0.0637 0.0646 -0.9959
vn 0.1584 0.1736 -0.9720
vn 0.1263 0.0718 -0.9894
vn -0.0672 0.0237 -0.9975
vn -0.2589 0.0171 -0.9658
vn 0.0491 -0.9952 0.0850
vn 0.5000 -0.0000 0.8660
vn 0.0491 0.9952 0.0850
vn 0.4232 -0.5326 0.7330
vn 0.4232 0.5326 0.7330
vn -0.4232 -0.5326 0.7330
vn -0.4232 0.5326 0.7330
vn -0.0491 -0.9952 0.0850
vn -0.5000 -0.0000 0.8660
vn -0.0491 0.9952 0.0850
vt 0.500000 0.937648
vt 0.625000 0.937648
vt 0.625000 1.000000
vt 0.500000 1.000000
vt 0.350080 0.716918
vt 0.274920 0.721631
vt 0.875000 0.652321
vt 0.875000 0.625000
vt 0.625000 0.625000
vt 0.625000 0.750000
vt 0.500000 0.000000
vt 0.625000 0.000000
vt 0.625000 0.125000
vt 0.500000 0.125000
vt 0.500000 0.750000
vt 0.375000 0.937648
vt 0.375000 1.000000
vt 0.375000 0.000000
vt 0.375000 0.125000
vt 0.375000 0.750000
vt 0.500000 0.875000
vt 0.375000 0.875000
vt 0.375000 0.625000
vt 0.750000 0.625000
vt 0.750000 0.750000
vt 0.625000 0.875000
vt 0.187352 0.625000
vt 0.250000 0.625000
vt 0.250000 0.750000
vt 0.187352 0.750000
vt 0.125000 0.625000
vt 0.125000 0.750000
vt 0.000000 0.000000
vt 0.625000 0.097679
vt 0.812648 0.625000
vt 0.812648 0.750000
vt 0.812648 0.652321
vt 0.875000 0.750000
vt 0.750000 0.652321
vt 0.812648 0.652321
vt 0.750000 0.652321
vt 0.500000 0.625000
vt 0.350080 0.657737
vt 0.274920 0.653051
vt 0.274920 0.662057
vt 0.274920 0.712625
vt 0.274920 0.712625
vt 0.274920 0.662057
vt 0.625000 0.035801
vt 0.625000 0.035801
vt 0.625000 0.035801
vt 0.625000 0.035801
vt 0.625000 0.035801
vt 0.583333 0.000000
vt 0.666667 0.200000
vt 0.500000 0.200000
vt 0.666667 0.400000
vt 0.666667 0.600000
vt 0.500000 0.600000
vt 0.500000 0.400000
vt 0.666667 0.800000
vt 0.583333 1.000000
vt 0.500000 0.800000
vt 0.333333 0.400000
vt 0.333333 0.200000
vt 0.333333 0.800000
vt 0.333333 0.600000
vt 0.416667 0.000000
vt 0.416667 1.000000
vt 0.166667 0.400000
vt 0.166667 0.200000
vt 0.166667 0.800000
vt 0.166667 0.600000
vt 0.250000 0.000000
vt 0.250000 1.000000
vt 0.000000 0.400000
vt 0.000000 0.200000
vt 0.000000 0.800000
vt 0.000000 0.600000
vt 0.083333 0.000000
vt 0.083333 1.000000
vt 1.000000 0.200000
vt 1.000000 0.400000
vt 0.833333 0.400000
vt 0.833333 0.200000
vt 1.000000 0.600000
vt 1.000000 0.800000
vt 0.833333 0.800000
vt 0.833333 0.600000
vt 0.916667 0.000000
vt 0.916667 1.000000
vt 0.750000 0.000000
vt 0.750000 1.000000
s 0
usemtl Material.001
f 208/13/126 212/13/126 210/13/126 211/49/126 209/50/126
f 208/13/130 209/50/130 216/49/130 215/13/130
f 223/57/135 247/58/135 226/59/135 227/60/135
f 224/55/137 223/57/137 227/60/137 228/56/137
f 247/58/138 222/61/138 225/63/138 226/59/138
f 228/56/139 227/60/139 231/64/139 232/65/139
f 225/63/142 238/69/142 229/66/142
f 242/82/144 241/83/144 245/84/144 246/85/144
f 240/86/145 239/87/145 243/88/145 244/89/145
f 241/83/6 240/86/6 244/89/6 245/84/6
f 239/87/147 238/91/147 243/88/147
f 246/85/148 245/84/148 223/57/148 224/55/148
f 244/89/149 243/88/149 222/61/149 247/58/149
f 245/84/151 244/89/151 247/58/151 223/57/151
f 208/13/126 387/50/126 388/49/126 210/13/126 212/13/126
f 237/54/227 399/56/227 395/55/227
f 394/57/228 398/60/228 397/59/228 404/58/228
f 393/61/229 396/63/229 238/62/229
f 395/55/230 399/56/230 398/60/230 394/57/230
f 404/58/231 397/59/231 396/63/231 393/61/231
f 399/56/139 232/65/139 231/64/139 398/60/139
f 397/59/140 230/67/140 229/66/140 396/63/140
f 237/68/141 232/65/141 399/56/141
f 398/60/33 231/64/33 230/67/33 397/59/33
f 242/82/144 403/85/144 402/84/144 241/83/144
f 237/90/146 403/85/146 242/82/146
f 241/83/6 402/84/6 401/89/6 240/86/6
f 403/85/232 395/55/232 394/57/232 402/84/232
f 401/89/233 404/58/233 393/61/233 400/88/233
f 237/92/234 395/55/234 403/85/234
f 402/84/235 394/57/235 404/58/235 401/89/235
f 400/88/236 393/61/236 238/93/236
usemtl Material.002
f 20/1/1 18/2/1 2/3/1 9/4/1
f 3/5/2 13/6/2 100/6/2 101/5/2
f 2/3/3 18/2/3 36/2/3 33/3/3
f 8/9/5 4/10/5 24/10/5 28/9/5
f 9/11/6 2/12/6 6/13/6 12/14/6
f 4/10/7 10/15/7 30/15/7 24/10/7
f 21/16/8 20/1/8 9/4/8 1/17/8
f 1/18/9 9/11/9 12/14/9 5/19/9
f 95/20/10 10/15/10 17/21/10 94/22/10
f 95/20/11 7/23/11 27/23/11 23/20/11
f 8/9/12 15/24/12 14/25/12 4/10/12
f 10/15/13 4/10/13 14/26/13 17/21/13
f 19/27/14 16/28/14 94/29/14 21/30/14
f 94/22/15 17/21/15 20/1/15 21/16/15
f 5/31/16 19/27/16 21/30/16 1/32/16
f 17/21/17 14/26/17 18/2/17 20/1/17
f 24/10/18 30/15/18 37/15/18 31/10/18
f 30/15/18 23/20/18 11/20/18 37/15/18
f 22/33/19 6/33/19 32/33/19 29/33/19
f 10/15/7 95/20/7 23/20/7 30/15/7
f 15/33/19 22/33/19 29/33/19 26/33/19
f 31/10/20 37/15/20 59/15/20 58/10/20
f 18/2/21 14/26/21 25/26/21 36/2/21
f 6/13/22 2/12/22 33/12/22 32/13/22
f 37/15/20 11/20/20 60/20/20 59/15/20
f 14/25/23 15/24/23 26/24/23 25/25/23
f 23/20/24 27/23/24 34/23/24 11/20/24
f 28/9/25 24/10/25 31/10/25 35/9/25
f 36/2/26 25/26/26 42/26/26 40/2/26
f 32/13/27 33/12/27 44/12/27 154/34/27 41/13/27
f 154/34/28 44/12/28 52/12/28 157/34/28
f 29/33/19 32/33/19 41/33/19 39/33/19
f 26/33/19 29/33/19 39/33/19 43/33/19
f 33/3/29 36/2/29 40/2/29 44/3/29
f 39/35/20 40/36/20 46/36/20 45/35/20
f 25/25/30 26/24/30 43/24/30 42/25/30
f 40/36/31 39/35/31 49/35/31 156/37/31 50/36/31
f 43/33/20 39/33/20 45/33/20 48/33/20
f 40/2/20 42/26/20 47/26/20 46/2/20
f 156/37/32 157/7/32 52/38/32 50/36/32
f 159/39/32 158/40/32 54/36/32 55/25/32
f 42/25/33 43/24/33 48/24/33 155/41/33 47/25/33
f 39/33/19 41/33/19 51/33/19 49/33/19
f 44/3/34 40/2/34 50/2/34 52/3/34
f 48/33/19 45/33/19 53/33/19 56/33/19
f 46/2/35 47/26/35 55/26/35 54/2/35
f 63/9/20 71/9/20 70/42/20 38/42/20
f 45/35/36 46/36/36 54/36/36 158/40/36 53/35/36
f 71/9/20 72/10/20 88/10/20 86/9/20
f 11/20/20 34/23/20 61/23/20 60/20/20
f 87/42/19 86/9/19 80/9/19 81/42/19
f 57/9/20 63/9/20 38/42/20 62/42/20
f 35/9/20 31/10/20 58/10/20 57/9/20
f 59/15/20 65/15/20 64/10/20 58/10/20
f 58/10/20 64/10/20 63/9/20 57/9/20
f 62/42/20 38/42/20 65/15/20 59/15/20
f 62/42/20 67/42/20 66/23/20 61/23/20
f 81/42/20 80/42/20 82/10/20 84/10/20
f 60/20/20 69/20/20 68/15/20 59/15/20
f 59/15/20 68/15/20 67/42/20 62/42/20
f 61/23/20 66/23/20 69/20/20 60/20/20
f 65/15/20 73/15/20 72/10/20 64/10/20
f 64/10/20 72/10/20 71/9/20 63/9/20
f 38/42/20 70/42/20 73/15/20 65/15/20
f 67/42/20 75/42/20 74/23/20 66/23/20
f 73/15/20 70/42/20 87/42/20 89/15/20
f 69/20/20 77/20/20 76/15/20 68/15/20
f 68/15/20 76/15/20 75/42/20 67/42/20
f 76/15/20 77/20/20 93/20/20 92/15/20
f 74/23/20 75/42/20 90/42/20 91/23/20
f 72/10/20 73/15/20 89/15/20 88/10/20
f 66/23/20 74/23/20 77/20/20 69/20/20
f 70/42/20 71/9/20 86/9/20 87/42/20
f 77/20/20 74/23/20 91/23/20 93/20/20
f 92/15/37 93/20/37 78/20/37 79/15/37
f 88/10/38 89/15/38 84/15/38 82/10/38
f 75/42/20 76/15/20 92/15/20 90/42/20
f 89/15/39 87/42/39 81/42/39 84/15/39
f 86/9/40 88/10/40 82/10/40 80/9/40
f 91/23/19 90/42/19 85/42/19 83/23/19
f 83/23/20 85/23/20 79/15/20 78/15/20
f 93/20/41 91/23/41 83/23/41 78/20/41
f 13/6/42 3/5/42 95/20/42 94/29/42
f 90/42/43 92/15/43 79/15/43 85/42/43
f 97/43/42 96/44/42 16/28/42 7/23/42
f 3/5/42 97/43/42 7/23/42 95/20/42
f 96/44/42 13/6/42 94/29/42 16/28/42
f 100/6/44 99/44/44 103/44/44 104/6/44
f 96/44/45 97/43/45 98/43/45 99/44/45
f 13/6/46 96/44/46 99/44/46 100/6/46
f 101/5/48 100/6/48 104/6/48 105/5/48
f 97/43/49 3/5/49 101/5/49 98/43/49
f 99/44/50 98/43/50 102/43/50 103/44/50
f 98/43/52 101/5/52 105/5/52 102/43/52
f 47/25/87 155/41/87 159/39/87 55/25/87
f 155/41/118 48/24/118 196/24/118 198/41/118
f 198/41/121 196/24/121 200/24/121 202/41/121
f 237/54/134 224/55/134 228/56/134
f 222/61/136 238/62/136 225/63/136
f 226/59/140 225/63/140 229/66/140 230/67/140
f 237/68/141 228/56/141 232/65/141
f 227/60/33 226/59/33 230/67/33 231/64/33
f 232/65/143 231/64/143 235/70/143 236/71/143
f 230/67/143 229/66/143 233/72/143 234/73/143
f 237/74/143 232/65/143 236/71/143
f 231/64/143 230/67/143 234/73/143 235/70/143
f 229/66/143 238/75/143 233/72/143
f 236/71/143 235/70/143 241/76/143 242/77/143
f 234/73/143 233/72/143 239/78/143 240/79/143
f 237/80/143 236/71/143 242/77/143
f 235/70/143 234/73/143 240/79/143 241/76/143
f 233/72/143 238/81/143 239/78/143
f 237/90/146 242/82/146 246/85/146
f 237/92/150 246/85/150 224/55/150
f 243/88/152 238/93/152 222/61/152
f 259/1/153 252/4/153 249/3/153 258/2/153
f 250/5/154 304/5/154 303/6/154 255/6/154
f 249/3/155 266/3/155 267/2/155 258/2/155
f 8/9/5 28/9/5 262/10/5 251/10/5
f 252/11/6 12/14/6 6/13/6 249/12/6
f 251/10/156 262/10/156 264/15/156 253/15/156
f 260/16/157 248/17/157 252/4/157 259/1/157
f 248/18/9 5/19/9 12/14/9 252/11/9
f 298/20/158 297/22/158 257/21/158 253/15/158
f 298/20/11 261/20/11 27/23/11 7/23/11
f 8/9/12 251/10/12 256/25/12 15/24/12
f 253/15/159 257/21/159 256/26/159 251/10/159
f 19/27/14 260/30/14 297/29/14 16/28/14
f 297/22/160 260/16/160 259/1/160 257/21/160
f 5/31/16 248/32/16 260/30/16 19/27/16
f 257/21/161 259/1/161 258/2/161 256/26/161
f 262/10/162 265/10/162 268/15/162 264/15/162
f 264/15/162 268/15/162 254/20/162 261/20/162
f 253/15/156 264/15/156 261/20/156 298/20/156
f 265/10/20 278/10/20 279/15/20 268/15/20
f 258/2/163 267/2/163 263/26/163 256/26/163
f 6/13/22 32/13/22 266/12/22 249/12/22
f 268/15/20 279/15/20 280/20/20 254/20/20
f 256/25/23 263/25/23 26/24/23 15/24/23
f 261/20/24 254/20/24 34/23/24 27/23/24
f 28/9/25 35/9/25 265/10/25 262/10/25
f 267/2/164 269/2/164 270/26/164 263/26/164
f 32/13/27 41/13/27 357/34/27 271/12/27 266/12/27
f 357/34/28 360/34/28 275/12/28 271/12/28
f 266/3/165 271/3/165 269/2/165 267/2/165
f 39/35/20 45/35/20 272/36/20 269/36/20
f 263/25/30 270/25/30 43/24/30 26/24/30
f 269/36/31 274/36/31 359/37/31 49/35/31 39/35/31
f 269/2/20 272/2/20 273/26/20 270/26/20
f 359/37/32 274/36/32 275/38/32 360/7/32
f 362/39/32 277/25/32 276/36/32 361/40/32
f 270/25/33 273/25/33 358/41/33 48/24/33 43/24/33
f 271/3/166 275/3/166 274/2/166 269/2/166
f 272/2/167 276/2/167 277/26/167 273/26/167
f 45/35/36 53/35/36 361/40/36 276/36/36 272/36/36
f 71/9/20 86/9/20 293/10/20 285/10/20
f 254/20/20 280/20/20 61/23/20 34/23/20
f 35/9/20 57/9/20 278/10/20 265/10/20
f 279/15/20 278/10/20 281/10/20 282/15/20
f 278/10/20 57/9/20 63/9/20 281/10/20
f 62/42/20 279/15/20 282/15/20 38/42/20
f 81/42/20 292/10/20 291/10/20 80/42/20
f 280/20/20 279/15/20 283/15/20 284/20/20
f 279/15/20 62/42/20 67/42/20 283/15/20
f 61/23/20 280/20/20 284/20/20 66/23/20
f 282/15/20 281/10/20 285/10/20 286/15/20
f 281/10/20 63/9/20 71/9/20 285/10/20
f 38/42/20 282/15/20 286/15/20 70/42/20
f 286/15/20 294/15/20 87/42/20 70/42/20
f 284/20/20 283/15/20 287/15/20 288/20/20
f 283/15/20 67/42/20 75/42/20 287/15/20
f 287/15/20 295/15/20 296/20/20 288/20/20
f 285/10/20 293/10/20 294/15/20 286/15/20
f 66/23/20 284/20/20 288/20/20 74/23/20
f 288/20/20 296/20/20 91/23/20 74/23/20
f 295/15/168 290/15/168 289/20/168 296/20/168
f 293/10/169 291/10/169 292/15/169 294/15/169
f 75/42/20 90/42/20 295/15/20 287/15/20
f 294/15/39 292/15/39 81/42/39 87/42/39
f 86/9/40 80/9/40 291/10/40 293/10/40
f 83/23/20 289/15/20 290/15/20 85/23/20
f 296/20/41 289/20/41 83/23/41 91/23/41
f 255/6/42 297/29/42 298/20/42 250/5/42
f 90/42/43 85/42/43 290/15/43 295/15/43
f 300/43/42 7/23/42 16/28/42 299/44/42
f 250/5/42 298/20/42 7/23/42 300/43/42
f 299/44/42 16/28/42 297/29/42 255/6/42
f 303/6/170 307/6/170 306/44/170 302/44/170
f 299/44/171 302/44/171 301/43/171 300/43/171
f 255/6/172 303/6/172 302/44/172 299/44/172
f 304/5/174 308/5/174 307/6/174 303/6/174
f 300/43/175 301/43/175 304/5/175 250/5/175
f 302/44/176 306/44/176 305/43/176 301/43/176
f 301/43/178 305/43/178 308/5/178 304/5/178
f 273/25/87 277/25/87 362/39/87 358/41/87
f 358/41/118 381/41/118 196/24/118 48/24/118
f 381/41/121 383/41/121 200/24/121 196/24/121
f 208/13/130 215/13/130 390/49/130 387/50/130
f 396/63/142 229/66/142 238/69/142
f 240/86/145 401/89/145 400/88/145 239/87/145
f 239/87/147 400/88/147 238/91/147
usemtl RED
f 165/7/4 164/8/4 161/8/4 162/7/4
f 48/33/19 56/33/19 197/33/19 196/33/19
f 159/39/88 56/24/88 185/24/88 187/39/88
f 49/33/19 51/33/19 168/33/19 169/33/19
f 157/7/89 51/8/89 164/8/89 165/7/89
f 167/34/90 165/34/90 162/34/90 163/34/90
f 166/13/91 167/34/91 163/34/91 160/13/91
f 164/33/19 166/33/19 160/33/19 161/33/19
f 160/13/28 163/34/28 162/34/28 161/13/28
f 154/34/92 157/34/92 165/34/92 167/34/92
f 41/13/93 154/34/93 167/34/93 166/13/93
f 51/33/19 41/33/19 166/33/19 164/33/19
f 171/37/94 169/35/94 173/35/94 175/37/94
f 157/7/95 156/37/95 171/37/95 170/7/95
f 51/8/96 157/7/96 170/7/96 168/8/96
f 156/37/97 49/35/97 169/35/97 171/37/97
f 174/7/98 175/37/98 179/37/98 178/7/98
f 169/33/19 168/33/19 172/33/19 173/33/19
f 170/7/99 171/37/99 175/37/99 174/7/99
f 168/8/100 170/7/100 174/7/100 172/8/100
f 176/8/101 178/7/101 182/7/101 180/8/101
f 172/8/102 174/7/102 178/7/102 176/8/102
f 175/37/103 173/35/103 177/35/103 179/37/103
f 173/33/19 172/33/19 176/33/19 177/33/19
f 181/35/104 180/8/104 182/7/104 183/37/104
f 179/37/105 177/35/105 181/35/105 183/37/105
f 177/33/19 176/33/19 180/33/19 181/33/19
f 178/7/106 179/37/106 183/37/106 182/7/106
f 186/40/107 187/39/107 191/39/107 190/40/107
f 53/35/108 158/40/108 186/40/108 184/35/108
f 56/33/19 53/33/19 184/33/19 185/33/19
f 158/40/109 159/39/109 187/39/109 186/40/109
f 191/39/110 189/24/110 193/24/110 195/39/110
f 184/35/111 186/40/111 190/40/111 188/35/111
f 187/39/112 185/24/112 189/24/112 191/39/112
f 185/33/19 184/33/19 188/33/19 189/33/19
f 193/24/113 192/35/113 194/40/113 195/39/113
f 189/33/19 188/33/19 192/33/19 193/33/19
f 190/40/114 191/39/114 195/39/114 194/40/114
f 188/35/115 190/40/115 194/40/115 192/35/115
f 199/39/116 198/41/116 202/41/116 203/39/116
f 56/24/117 159/39/117 199/39/117 197/24/117
f 159/39/119 155/41/119 198/41/119 199/39/119
f 201/24/120 203/39/120 207/39/120 205/24/120
f 197/24/122 199/39/122 203/39/122 201/24/122
f 196/33/19 197/33/19 201/33/19 200/33/19
f 206/41/123 204/24/123 205/24/123 207/39/123
f 200/33/19 201/33/19 205/33/19 204/33/19
f 203/39/124 202/41/124 206/41/124 207/39/124
f 202/41/125 200/24/125 204/24/125 206/41/125
f 365/7/4 363/7/4 161/8/4 164/8/4
f 362/39/88 376/39/88 185/24/88 56/24/88
f 360/7/89 365/7/89 164/8/89 51/8/89
f 366/34/213 364/34/213 363/34/213 365/34/213
f 166/13/91 160/13/91 364/34/91 366/34/91
f 160/13/28 161/13/28 363/34/28 364/34/28
f 357/34/214 366/34/214 365/34/214 360/34/214
f 41/13/93 166/13/93 366/34/93 357/34/93
f 368/37/94 370/37/94 173/35/94 169/35/94
f 360/7/215 367/7/215 368/37/215 359/37/215
f 51/8/96 168/8/96 367/7/96 360/7/96
f 359/37/97 368/37/97 169/35/97 49/35/97
f 369/7/216 371/7/216 372/37/216 370/37/216
f 367/7/217 369/7/217 370/37/217 368/37/217
f 168/8/100 172/8/100 369/7/100 367/7/100
f 176/8/101 180/8/101 373/7/101 371/7/101
f 172/8/102 176/8/102 371/7/102 369/7/102
f 370/37/103 372/37/103 177/35/103 173/35/103
f 181/35/104 374/37/104 373/7/104 180/8/104
f 372/37/105 374/37/105 181/35/105 177/35/105
f 371/7/218 373/7/218 374/37/218 372/37/218
f 375/40/219 377/40/219 378/39/219 376/39/219
f 53/35/108 184/35/108 375/40/108 361/40/108
f 361/40/220 375/40/220 376/39/220 362/39/220
f 378/39/110 380/39/110 193/24/110 189/24/110
f 184/35/111 188/35/111 377/40/111 375/40/111
f 376/39/112 378/39/112 189/24/112 185/24/112
f 193/24/113 380/39/113 379/40/113 192/35/113
f 377/40/221 379/40/221 380/39/221 378/39/221
f 188/35/115 192/35/115 379/40/115 377/40/115
f 382/39/222 384/39/222 383/41/222 381/41/222
f 56/24/117 197/24/117 382/39/117 362/39/117
f 362/39/223 382/39/223 381/41/223 358/41/223
f 201/24/120 205/24/120 386/39/120 384/39/120
f 197/24/122 201/24/122 384/39/122 382/39/122
f 385/41/123 386/39/123 205/24/123 204/24/123
f 384/39/224 386/39/224 385/41/224 383/41/224
f 383/41/125 385/41/125 204/24/125 200/24/125
usemtl orange
f 105/5/47 104/6/47 108/6/47 109/5/47
f 114/5/51 113/5/51 134/5/51 136/5/51
f 103/44/53 102/43/53 106/43/53 107/44/53
f 102/43/54 105/5/54 109/5/54 106/43/54
f 104/6/55 103/44/55 107/44/55 108/6/55
f 113/5/20 114/5/20 122/5/20 121/5/20
f 138/44/56 110/43/56 113/5/56 139/6/56
f 138/44/20 140/44/20 124/44/20 119/44/20
f 109/5/57 108/6/57 141/6/57 114/5/57
f 111/45/58 112/46/58 151/46/58 150/45/58
f 107/44/59 106/43/59 115/43/59 140/44/59
f 108/6/60 107/44/60 140/44/60 141/6/60
f 123/43/61 118/43/61 126/43/61 131/43/61
f 106/43/62 109/5/62 114/5/62 115/43/62
f 141/6/20 139/6/20 120/6/20 125/6/20
f 110/43/20 138/44/20 119/44/20 118/43/20
f 115/43/20 110/43/20 118/43/20 123/43/20
f 140/44/20 115/43/20 123/43/20 124/44/20
f 114/5/20 141/6/20 125/6/20 122/5/20
f 139/6/20 113/5/20 121/5/20 120/6/20
f 132/44/63 131/43/63 126/43/63 127/44/63
f 130/5/64 133/6/64 128/6/64 129/5/64
f 120/6/65 121/5/65 129/5/65 128/6/65
f 122/5/66 125/6/66 133/6/66 130/5/66
f 125/6/67 120/6/67 144/6/67 145/6/67
f 121/5/68 122/5/68 130/5/68 129/5/68
f 118/43/69 119/44/69 127/44/69 126/43/69
f 124/44/70 123/43/70 131/43/70 132/44/70
f 117/47/71 116/48/71 152/48/71 153/47/71
f 137/43/72 136/5/72 134/5/72 135/43/72
f 115/43/73 114/5/73 136/5/73 137/43/73
f 110/43/74 115/43/74 137/43/74 135/43/74
f 113/5/75 110/43/75 135/43/75 134/5/75
f 111/45/60 116/48/60 140/44/60 138/44/60
f 117/47/60 112/46/60 139/6/60 141/6/60
f 112/46/60 111/45/60 138/44/60 139/6/60
f 116/48/60 117/47/60 141/6/60 140/44/60
f 145/6/76 144/6/76 148/6/76 149/6/76
f 142/44/77 143/44/77 147/44/77 146/44/77
f 124/44/78 132/44/78 147/44/78 143/44/78
f 132/44/79 127/44/79 146/44/79 147/44/79
f 116/48/80 111/45/80 150/45/80 152/48/80
f 120/6/81 128/6/81 148/6/81 144/6/81
f 127/44/82 119/44/82 142/44/82 146/44/82
f 128/6/83 133/6/83 149/6/83 148/6/83
f 119/44/84 124/44/84 143/44/84 142/44/84
f 112/46/85 117/47/85 153/47/85 151/46/85
f 133/6/86 125/6/86 145/6/86 149/6/86
f 153/47/60 152/48/60 150/45/60 151/46/60
f 211/49/127 214/51/127 216/49/127 209/50/127
f 213/13/128 217/13/128 218/52/128 214/51/128
f 214/51/129 218/52/129 221/53/129 216/49/129
f 220/13/131 221/53/131 218/52/131 217/13/131 219/13/131
f 215/13/132 216/49/132 221/53/132 220/13/132
f 211/49/133 210/13/133 213/13/133 214/51/133
f 308/5/173 312/5/173 311/6/173 307/6/173
f 317/5/177 339/5/177 337/5/177 316/5/177
f 306/44/179 310/44/179 309/43/179 305/43/179
f 305/43/180 309/43/180 312/5/180 308/5/180
f 307/6/181 311/6/181 310/44/181 306/44/181
f 316/5/20 324/5/20 325/5/20 317/5/20
f 341/44/182 342/6/182 316/5/182 313/43/182
f 341/44/20 322/44/20 327/44/20 343/44/20
f 312/5/183 317/5/183 344/6/183 311/6/183
f 314/45/184 353/45/184 354/46/184 315/46/184
f 310/44/185 343/44/185 318/43/185 309/43/185
f 311/6/186 344/6/186 343/44/186 310/44/186
f 326/43/187 334/43/187 329/43/187 321/43/187
f 309/43/188 318/43/188 317/5/188 312/5/188
f 344/6/20 328/6/20 323/6/20 342/6/20
f 313/43/20 321/43/20 322/44/20 341/44/20
f 318/43/20 326/43/20 321/43/20 313/43/20
f 343/44/20 327/44/20 326/43/20 318/43/20
f 317/5/20 325/5/20 328/6/20 344/6/20
f 342/6/20 323/6/20 324/5/20 316/5/20
f 335/44/189 330/44/189 329/43/189 334/43/189
f 333/5/190 332/5/190 331/6/190 336/6/190
f 323/6/191 331/6/191 332/5/191 324/5/191
f 325/5/192 333/5/192 336/6/192 328/6/192
f 328/6/193 348/6/193 347/6/193 323/6/193
f 324/5/194 332/5/194 333/5/194 325/5/194
f 321/43/195 329/43/195 330/44/195 322/44/195
f 327/44/196 335/44/196 334/43/196 326/43/196
f 320/47/197 356/47/197 355/48/197 319/48/197
f 340/43/198 338/43/198 337/5/198 339/5/198
f 318/43/199 340/43/199 339/5/199 317/5/199
f 313/43/200 338/43/200 340/43/200 318/43/200
f 316/5/201 337/5/201 338/43/201 313/43/201
f 314/45/186 341/44/186 343/44/186 319/48/186
f 320/47/186 344/6/186 342/6/186 315/46/186
f 315/46/186 342/6/186 341/44/186 314/45/186
f 319/48/186 343/44/186 344/6/186 320/47/186
f 348/6/202 352/6/202 351/6/202 347/6/202
f 345/44/203 349/44/203 350/44/203 346/44/203
f 327/44/204 346/44/204 350/44/204 335/44/204
f 335/44/205 350/44/205 349/44/205 330/44/205
f 319/48/206 355/48/206 353/45/206 314/45/206
f 323/6/207 347/6/207 351/6/207 331/6/207
f 330/44/208 349/44/208 345/44/208 322/44/208
f 331/6/209 351/6/209 352/6/209 336/6/209
f 322/44/210 345/44/210 346/44/210 327/44/210
f 315/46/211 354/46/211 356/47/211 320/47/211
f 336/6/212 352/6/212 348/6/212 328/6/212
f 356/47/186 354/46/186 353/45/186 355/48/186
f 388/49/225 387/50/225 390/49/225 389/51/225
f 213/13/128 389/51/128 391/52/128 217/13/128
f 389/51/226 390/49/226 392/53/226 391/52/226
f 220/13/131 219/13/131 217/13/131 391/52/131 392/53/131
f 215/13/132 220/13/132 392/53/132 390/49/132
f 388/49/133 389/51/133 213/13/133 210/13/133
o WİNG
v 0.003390 0.782243 0.469989
v 0.003390 1.298039 0.469989
v 0.003390 0.782243 0.377504
v 0.003390 1.298039 0.377504
v 0.334180 0.751584 0.460895
v 0.334180 1.165948 0.460895
v 0.334180 0.751584 0.386598
v 0.334180 1.165948 0.386598
v 0.003390 1.040141 0.469989
v 0.003390 1.040141 0.377504
v 0.334180 0.958766 0.386598
v 0.334180 0.958766 0.460895
v 0.157789 0.745804 0.407877
v 0.157789 1.246505 0.407877
v 0.157789 0.745804 0.497654
v 0.157789 1.246505 0.497654
v 0.157789 0.996155 0.497654
v 0.157789 0.996155 0.407877
v -0.095579 0.853890 0.413833
v -0.095579 1.226393 0.413833
v -0.095579 0.853890 0.347042
v -0.095579 1.226393 0.347042
v -0.095579 1.040141 0.413833
v -0.095579 1.040141 0.347042
v -0.148363 0.942287 0.362629
v -0.148363 1.137995 0.362629
v -0.148363 0.942287 0.327537
v -0.148363 1.137995 0.327537
v -0.148363 1.040141 0.362629
v -0.148363 1.040141 0.327537
v 0.450744 0.802588 0.431117
v 0.450744 1.154532 0.431117
v 0.450744 0.802588 0.368012
v 0.450744 1.154532 0.368012
v 0.450744 0.978560 0.368012
v 0.450744 0.978560 0.431117
v 0.573907 0.963130 0.363466
v 0.573907 1.156741 0.363466
v 0.573907 0.963130 0.328751
v 0.573907 1.156741 0.328751
v 0.573907 1.059935 0.328751
v 0.573907 1.059935 0.363466
v 0.653083 1.121516 0.318108
v 0.653083 1.121516 0.318108
v 0.653083 1.121516 0.318108
v 0.653083 1.121516 0.318108
v 0.653083 1.121516 0.318108
v 0.653083 1.121516 0.318108
v 0.653083 1.121516 0.318108
v 0.653083 1.121516 0.318108
v 0.653083 1.121516 0.318108
v 0.653083 1.121516 0.318108
v 0.653083 1.121516 0.318108
v 0.653083 1.121516 0.318108
v 0.003390 0.782243 -0.469989
v 0.003390 1.298039 -0.469989
v 0.003390 0.782243 -0.377505
v 0.003390 1.298039 -0.377505
v 0.334180 0.751584 -0.460895
v 0.334180 1.165948 -0.460895
v 0.334180 0.751584 -0.386598
v 0.334180 1.165948 -0.386598
v 0.003390 1.040141 -0.469989
v 0.003390 1.040141 -0.377505
v 0.334180 0.958766 -0.386598
v 0.334180 0.958766 -0.460895
v 0.157789 0.745804 -0.407877
v 0.157789 1.246505 -0.407877
v 0.157789 0.745804 -0.497655
v 0.157789 1.246505 -0.497655
v 0.157789 0.996155 -0.497655
v 0.157789 0.996155 -0.407877
v -0.095579 0.853890 -0.413833
v -0.095579 1.226393 -0.413833
v -0.095579 0.853890 -0.347042
v -0.095579 1.226393 -0.347042
v -0.095579 1.040141 -0.413833
v -0.095579 1.040141 -0.347042
v -0.148363 0.942287 -0.362629
v -0.148363 1.137995 -0.362629
v -0.148363 0.942287 -0.327538
v -0.148363 1.137995 -0.327538
v -0.148363 1.040141 -0.362629
v -0.148363 1.040141 -0.327538
v 0.450745 0.802588 -0.431117
v 0.450745 1.154532 -0.431117
v 0.450745 0.802588 -0.368012
v 0.450745 1.154532 -0.368012
v 0.450745 0.978560 -0.368012
v 0.450745 0.978560 -0.431117
v 0.573907 0.963130 -0.363466
v 0.573907 1.156741 -0.363466
v 0.573907 0.963130 -0.328751
v 0.573907 1.156741 -0.328751
v 0.573907 1.059935 -0.328751
v 0.573907 1.059935 -0.363466
v 0.653083 1.121516 -0.318108
v 0.653083 1.121516 -0.318108
v 0.653083 1.121516 -0.318108
v 0.653083 1.121516 -0.318108
v 0.653083 1.121516 -0.318108
v 0.653083 1.121516 -0.318108
v 0.653083 1.121516 -0.318108
v 0.653083 1.121516 -0.318108
v 0.653083 1.121516 -0.318108
v 0.653083 1.121516 -0.318108
v 0.653083 1.121516 -0.318108
v 0.653083 1.121516 -0.318108
vn 0.2942 -0.0000 -0.9558
vn -0.1198 -0.0000 -0.9928
vn 0.4009 -0.9161 -0.0000
vn -0.1764 -0.0000 0.9843
vn 0.0327 -0.9995 -0.0000
vn 0.3166 0.9486 -0.0000
vn 0.2475 -0.0000 0.9689
vn -0.5864 -0.8100 -0.0000
vn 0.1930 -0.0000 -0.9812
vn 0.2040 -0.0000 0.9790
vn 0.4154 0.9096 -0.0000
vn -0.2297 -0.9733 -0.0000
vn -0.6963 -0.0000 0.7178
vn -0.4935 -0.0000 0.8697
vn -0.5864 0.8100 -0.0000
vn -1.0000 -0.0000 -0.0000
vn -0.8586 0.5127 -0.0000
vn -0.8586 -0.5127 -0.0000
vn 0.3466 -0.0000 -0.9380
vn -0.0179 0.9998 -0.0000
vn -0.3037 -0.0000 -0.9528
vn -0.1575 -0.0000 -0.9875
vn 0.0975 0.9952 -0.0000
vn 0.4971 -0.0000 0.8677
vn 0.4814 -0.0000 0.8765
vn 0.7934 -0.6087 -0.0000
vn -0.0000 1.0000 -0.0000
vn 0.8945 -0.4471 -0.0000
vn -0.1332 -0.0000 -0.9911
vn 0.4065 0.9137 -0.0000
vn 0.2942 -0.0000 0.9558
vn -0.1198 -0.0000 0.9928
vn -0.1764 -0.0000 -0.9843
vn 0.0328 -0.9995 -0.0000
vn 0.2475 -0.0000 -0.9689
vn 0.1930 -0.0000 0.9812
vn 0.2040 -0.0000 -0.9790
vn -0.6963 -0.0000 -0.7178
vn -0.4935 -0.0000 -0.8697
vn 0.3466 -0.0000 0.9380
vn -0.3037 -0.0000 0.9528
vn -0.1575 -0.0000 0.9875
vn 0.4971 -0.0000 -0.8677
vn 0.4814 -0.0000 -0.8765
vn -0.1332 -0.0000 0.9911
vt 0.500000 0.250000
vt 0.375000 0.250000
vt 0.500000 0.375000
vt 0.625000 0.375000
vt 0.625000 0.500000
vt 0.500000 0.500000
vt 0.375000 0.750000
vt 0.375000 0.500000
vt 0.500000 0.875000
vt 0.625000 0.875000
vt 0.625000 1.000000
vt 0.500000 1.000000
vt 0.250000 0.500000
vt 0.250000 0.750000
vt 0.750000 0.500000
vt 0.875000 0.500000
vt 0.875000 0.750000
vt 0.750000 0.750000
vt 0.375000 0.875000
vt 0.375000 1.000000
vt 0.500000 0.750000
vt 0.375000 0.375000
vt 0.125000 0.500000
vt 0.125000 0.750000
vt 0.625000 0.750000
vt 0.625000 0.250000
vt 0.500000 0.000000
vt 0.625000 0.000000
vt 0.375000 0.000000
s 0
usemtl Material.003
f 414/94/237 407/95/237 425/95/237 428/94/237
f 422/96/238 418/97/238 412/98/238 415/99/238
f 409/100/239 411/101/239 437/101/239 435/100/239
f 421/102/240 420/103/240 406/104/240 413/105/240
f 417/106/241 411/101/241 409/100/241 419/107/241
f 418/108/242 408/109/242 406/110/242 420/111/242
f 419/112/240 421/102/240 413/105/240 405/113/240
f 416/114/243 409/100/243 435/100/243 440/114/243
f 417/115/238 422/96/238 415/99/238 411/101/238
f 407/116/244 405/117/244 423/117/244 425/116/244
f 407/95/245 414/94/245 422/96/245 417/115/245
f 409/100/246 416/114/246 421/102/246 419/112/246
f 412/98/247 418/108/247 420/111/247 410/118/247
f 407/116/248 417/106/248 419/107/248 405/117/248
f 416/114/246 410/118/246 420/103/246 421/102/246
f 414/94/245 408/119/245 418/97/245 422/96/245
f 423/113/249 427/105/249 433/105/249 429/113/249
f 427/105/249 424/104/249 430/104/249 433/105/249
f 405/113/250 413/105/250 427/105/250 423/113/250
f 413/105/250 406/104/250 424/104/250 427/105/250
f 408/119/237 414/94/237 428/94/237 426/119/237
f 406/110/251 408/109/251 426/109/251 424/110/251
f 433/120/252 430/121/252 432/119/252 434/94/252
f 429/122/252 433/120/252 434/94/252 431/95/252
f 424/110/253 426/109/253 432/109/253 430/110/253
f 425/116/254 423/117/254 429/117/254 431/116/254
f 426/119/255 428/94/255 434/94/255 432/119/255
f 428/94/255 425/95/255 431/95/255 434/94/255
f 438/98/256 436/118/256 442/118/256 444/98/256
f 439/99/257 438/98/257 444/98/257 445/99/257
f 415/99/258 412/98/258 438/98/258 439/99/258
f 412/98/259 410/118/259 436/118/259 438/98/259
f 411/101/258 415/99/258 439/99/258 437/101/258
f 410/118/243 416/114/243 440/114/243 436/118/243
f 446/114/260 441/100/260 447/100/260 452/114/260
f 442/118/260 446/114/260 452/114/260 448/118/260
f 437/101/257 439/99/257 445/99/257 443/101/257
f 436/118/261 440/114/261 446/114/261 442/118/261
f 440/114/261 435/100/261 441/100/261 446/114/261
f 435/100/262 437/101/262 443/101/262 441/100/262
f 455/101/263 457/99/263 458/114/263 453/100/263
f 457/99/263 456/98/263 454/118/263 458/114/263
f 441/100/264 443/101/264 449/101/264 447/100/264
f 445/99/265 444/98/265 450/98/265 451/99/265
f 444/98/266 442/118/266 448/118/266 450/98/266
f 443/101/265 445/99/265 451/99/265 449/101/265
f 468/94/267 482/94/267 479/95/267 461/95/267
f 476/96/268 469/99/268 466/98/268 472/97/268
f 463/100/239 489/100/239 491/101/239 465/101/239
f 475/102/269 467/105/269 460/104/269 474/103/269
f 471/106/270 473/107/270 463/100/270 465/101/270
f 472/108/242 474/111/242 460/110/242 462/109/242
f 473/112/269 459/113/269 467/105/269 475/102/269
f 470/114/271 494/114/271 489/100/271 463/100/271
f 471/115/268 465/101/268 469/99/268 476/96/268
f 461/116/244 479/116/244 477/117/244 459/117/244
f 461/95/272 471/115/272 476/96/272 468/94/272
f 463/100/273 473/112/273 475/102/273 470/114/273
f 466/98/247 464/118/247 474/111/247 472/108/247
f 461/116/248 459/117/248 473/107/248 471/106/248
f 470/114/273 475/102/273 474/103/273 464/118/273
f 468/94/272 476/96/272 472/97/272 462/119/272
f 477/113/274 483/113/274 487/105/274 481/105/274
f 481/105/274 487/105/274 484/104/274 478/104/274
f 459/113/275 477/113/275 481/105/275 467/105/275
f 467/105/275 481/105/275 478/104/275 460/104/275
f 462/119/267 480/119/267 482/94/267 468/94/267
f 460/110/251 478/110/251 480/109/251 462/109/251
f 487/120/252 488/94/252 486/119/252 484/121/252
f 483/122/252 485/95/252 488/94/252 487/120/252
f 478/110/253 484/110/253 486/109/253 480/109/253
f 479/116/254 485/116/254 483/117/254 477/117/254
f 480/119/276 486/119/276 488/94/276 482/94/276
f 482/94/276 488/94/276 485/95/276 479/95/276
f 492/98/256 498/98/256 496/118/256 490/118/256
f 493/99/277 499/99/277 498/98/277 492/98/277
f 469/99/278 493/99/278 492/98/278 466/98/278
f 466/98/259 492/98/259 490/118/259 464/118/259
f 465/101/278 491/101/278 493/99/278 469/99/278
f 464/118/271 490/118/271 494/114/271 470/114/271
f 500/114/279 506/114/279 501/100/279 495/100/279
f 496/118/279 502/118/279 506/114/279 500/114/279
f 491/101/277 497/101/277 499/99/277 493/99/277
f 490/118/280 496/118/280 500/114/280 494/114/280
f 494/114/280 500/114/280 495/100/280 489/100/280
f 489/100/262 495/100/262 497/101/262 491/101/262
f 509/101/263 507/100/263 512/114/263 511/99/263
f 511/99/263 512/114/263 508/118/263 510/98/263
f 495/100/264 501/100/264 503/101/264 497/101/264
f 499/99/281 505/99/281 504/98/281 498/98/281
f 498/98/266 504/98/266 502/118/266 496/118/266
f 497/101/281 503/101/281 505/99/281 499/99/281
o BezierCircle
v -4.503540 0.000000 0.000000
v -4.462414 0.000000 -0.610953
v -4.342619 0.000000 -1.196970
v -4.149529 0.000000 -1.752678
v -3.888515 0.000000 -2.272703
v -3.564953 0.000000 -2.751673
v -3.184214 0.000000 -3.184214
v -2.751673 0.000000 -3.564952
v -2.272703 0.000000 -3.888515
v -1.752678 0.000000 -4.149528
v -1.196970 0.000000 -4.342618
v -0.610953 0.000000 -4.462413
v 0.000000 0.000000 -4.503540
v 0.610953 0.000000 -4.462414
v 1.196970 0.000000 -4.342619
v 1.752678 0.000000 -4.149529
v 2.272703 0.000000 -3.888515
v 2.751673 0.000000 -3.564953
v 3.184214 0.000000 -3.184214
v 3.564952 0.000000 -2.751673
v 3.888515 0.000000 -2.272703
v 4.149528 0.000000 -1.752678
v 4.342618 0.000000 -1.196970
v 4.462413 0.000000 -0.610953
v 4.503540 0.000000 0.000000
v 4.462414 0.000000 0.610953
v 4.342619 0.000000 1.196970
v 4.149529 0.000000 1.752678
v 3.888515 0.000000 2.272703
v 3.564953 0.000000 2.751673
v 3.184214 0.000000 3.184214
v 2.751673 0.000000 3.564952
v 2.272703 0.000000 3.888515
v 1.752678 0.000000 4.149528
v 1.196970 0.000000 4.342618
v 0.610953 0.000000 4.462413
v 0.000000 0.000000 4.503540
v -0.610953 0.000000 4.462414
v -1.196970 0.000000 4.342619
v -1.752678 0.000000 4.149529
v -2.272703 0.000000 3.888515
v -2.751673 0.000000 3.564953
v -3.184214 0.000000 3.184214
v -3.564952 0.000000 2.751673
v -3.888515 0.000000 2.272703
v -4.149528 0.000000 1.752678
v -4.342618 0.000000 1.196970
v -4.462413 0.000000 0.610953
l 513 514
l 514 515
l 515 516
l 516 517
l 517 518
l 518 519
l 519 520
l 520 521
l 521 522
l 522 523
l 523 524
l 524 525
l 525 526
l 526 527
l 527 528
l 528 529
l 529 530
l 530 531
l 531 532
l 532 533
l 533 534
l 534 535
l 535 536
l 536 537
l 537 538
l 538 539
l 539 540
l 540 541
l 541 542
l 542 543
l 543 544
l 544 545
l 545 546
l 546 547
l 547 548
l 548 549
l 549 550
l 550 551
l 551 552
l 552 553
l 553 554
l 554 555
l 555 556
l 556 557
l 557 558
l 558 559
l 559 560
l 560 513
